<svg height="29" width="29" xmlns="http://www.w3.org/2000/svg"><g fill="none"><g fill="#000"><path d="M17 28.952zM18 28.973c-.333.019-.667.036-1 .054.333-.018.667-.035 1-.054zM17 28.963zM17 28.978zM17.077 28.972zM18.062 28.97l-.124.06.124-.06zM18.067 28.97l-.134.06.134-.06zM18.071 28.972c-.047.02-.095.038-.142.056l.142-.056zM16 28.985z"/></g><path d="M29 14.5C29 6.493 22.507 0 14.5 0S0 6.493 0 14.5 6.493 29 14.5 29l.255-.003V17.709H11.64v-3.63h3.115v-2.672c0-3.099 1.891-4.785 4.655-4.785 1.324 0 2.461.099 2.793.143v3.238h-1.906c-1.503 0-1.795.715-1.795 1.763v2.313h3.596l-.469 3.63h-3.127v10.73C24.563 26.703 29 21.12 29 14.5z" fill="#848484"/><path d="M16 28.98zM15 28.995z" fill="#000"/></g></svg>