<svg height="30" width="30" xmlns="http://www.w3.org/2000/svg"><path d="M18.36 8.52h-6.6c-.96 0-1.8.3-2.34.84s-.84 1.38-.84 2.34v6.6c0 .96.3 1.8.9 2.4.6.54 1.38.84 2.34.84h6.54c.96 0 1.8-.3 2.34-.84.6-.54.9-1.38.9-2.34v-6.6c0-.96-.3-1.74-.84-2.34-.6-.6-1.38-.9-2.4-.9zm-3.3 10.56c-2.28 0-4.08-1.86-4.08-4.08 0-2.28 1.86-4.08 4.08-4.08s4.14 1.8 4.14 4.08-1.86 4.08-4.14 4.08zM15.18.12c8.16 0 14.82 6.6 14.76 14.76 0 8.16-6.6 14.76-14.76 14.76S.42 23.04.42 14.88 7.02.12 15.18.12zm3.24 6.96h-6.6c-2.742 0-4.576 1.815-4.676 4.452l-.004.228v6.6c0 1.38.42 2.58 1.32 3.42.784.784 1.882 1.202 3.098 1.254l.262.006h6.54c1.32 0 2.52-.42 3.36-1.26.784-.784 1.254-1.882 1.314-3.146l.006-.274v-6.6c0-1.38-.42-2.52-1.26-3.36s-1.98-1.32-3.36-1.32zm-3.36 5.28a2.64 2.64 0 1 1 0 5.28 2.64 2.64 0 0 1 0-5.28zm4.26-2.58c.54 0 .96.42.96.96s-.42.96-.96.96-.96-.42-.96-.96.42-.96.96-.96z" fill="#848484"/></svg>